<svg width="175" height="52" viewBox="0 0 175 52" fill="none" xmlns="http://www.w3.org/2000/svg">
<g clip-path="url(#clip0)">
<path d="M168.887 52H6.23199C2.85221 52 0 49.2211 0 45.8428V6.25033C0 2.87196 2.85221 0 6.23199 0H168.887C172.264 0 174.778 2.87196 174.778 6.25033V45.8428C174.778 49.2211 172.179 52 168.801 52H168.887Z" fill="#B1B3B6"/>
<path d="M173.858 45.8443C173.858 48.5879 171.636 50.8095 168.889 50.8095H6.23206C3.48564 50.8095 1.25549 48.5879 1.25549 45.8443V6.25041C1.25549 3.50822 3.48564 1.27808 6.23206 1.27808H168.887C171.636 1.27808 173.857 3.50822 173.857 6.25041V45.8443H173.858Z" fill="black"/>
<path d="M39.1594 25.7715C39.1213 21.5933 42.5801 19.5606 42.7381 19.4661C40.7802 16.6097 37.7432 16.219 36.6768 16.1879C34.1264 15.9213 31.6537 17.7142 30.3545 17.7142C29.03 17.7142 27.0284 16.2147 24.8744 16.2599C22.0998 16.3022 19.5043 17.9088 18.081 20.4028C15.1427 25.4879 17.3348 32.9613 20.1475 37.0717C21.5553 39.0846 23.2 41.3331 25.354 41.2541C27.46 41.1667 28.2471 39.9112 30.7904 39.9112C33.3083 39.9112 34.0475 41.2541 36.2437 41.2033C38.5049 41.1667 39.9282 39.182 41.2866 37.1493C42.913 34.8416 43.5661 32.5691 43.5929 32.452C43.5407 32.4351 39.2017 30.7805 39.1594 25.7715Z" fill="white"/>
<path d="M35.0108 13.4853C36.1435 12.0676 36.9179 10.1408 36.7035 8.18286C35.063 8.25621 33.012 9.31698 31.8313 10.705C30.7875 11.9252 29.8537 13.9268 30.0949 15.8099C31.9371 15.9468 33.8273 14.8803 35.0108 13.4853Z" fill="white"/>
<path d="M64.6034 33.7724L63.1449 29.267C62.9911 28.8071 62.7005 27.7238 62.2745 26.017H62.2223C62.0531 26.7519 61.7794 27.8338 61.4042 29.267L59.971 33.7724H64.6034ZM69.6463 40.965H66.7024L65.0901 35.8968H59.4844L57.9483 40.965H55.0819L60.6354 23.7135H64.066L69.6463 40.965Z" fill="white"/>
<path d="M81.113 34.6935C81.113 33.4832 80.8394 32.4845 80.2935 31.6988C79.6954 30.8807 78.8942 30.4702 77.887 30.4702C77.2057 30.4702 76.5864 30.6987 76.0321 31.1487C75.4777 31.6015 75.1152 32.1939 74.9445 32.9288C74.8585 33.2702 74.8161 33.5509 74.8161 33.7724V35.8459C74.8161 36.7501 75.094 37.5147 75.6484 38.1367C76.2028 38.7602 76.9236 39.072 77.8108 39.072C78.8519 39.072 79.6629 38.6699 80.2427 37.8687C80.8224 37.0661 81.113 36.0082 81.113 34.6935ZM83.9286 34.5919C83.9286 36.7078 83.3573 38.3794 82.2133 39.608C81.1892 40.7012 79.9183 41.2471 78.3991 41.2471C76.7614 41.2471 75.5835 40.6575 74.8669 39.481H74.8161V46.0332H72.0514V32.6213C72.0514 31.2911 72.0175 29.9257 71.9498 28.525H74.3803L74.534 30.497H74.5862C75.5073 29.0116 76.9066 28.2697 78.7841 28.2697C80.2512 28.2697 81.4755 28.8494 82.4573 30.0089C83.4377 31.1712 83.9286 32.6989 83.9286 34.5919Z" fill="white"/>
<path d="M95.4207 34.6935C95.4207 33.4832 95.147 32.4845 94.6011 31.6988C94.003 30.8807 93.2032 30.4702 92.1947 30.4702C91.5119 30.4702 90.8941 30.6987 90.3397 31.1487C89.7854 31.6015 89.4228 32.1939 89.2522 32.9288C89.1675 33.2702 89.1252 33.5509 89.1252 33.7724V35.8459C89.1252 36.7501 89.4017 37.5147 89.9546 38.1367C90.509 38.7602 91.2312 39.072 92.1199 39.072C93.1595 39.072 93.9706 38.6699 94.5503 37.8687C95.1301 37.0661 95.4207 36.0082 95.4207 34.6935ZM98.2362 34.5919C98.2362 36.7078 97.6635 38.3794 96.5195 39.608C95.4968 40.7012 94.2259 41.2471 92.7067 41.2471C91.069 41.2471 89.8912 40.6575 89.1746 39.481H89.1252V46.0332H86.3604V32.6213C86.3604 31.2911 86.3252 29.9257 86.2575 28.525H88.6893L88.8431 30.497H88.8939C89.815 29.0116 91.2129 28.2697 93.0918 28.2697C94.5574 28.2697 95.7832 28.8494 96.765 30.0089C97.7453 31.1712 98.2362 32.6989 98.2362 34.5919Z" fill="white"/>
<path d="M114.234 36.128C114.234 37.595 113.725 38.7884 112.702 39.7109C111.578 40.7181 110.013 41.2216 108.003 41.2216C106.147 41.2216 104.657 40.8619 103.53 40.1454L104.172 37.8419C105.385 38.5768 106.717 38.9435 108.167 38.9435C109.208 38.9435 110.018 38.708 110.6 38.2382C111.18 37.7685 111.469 37.1394 111.469 36.3537C111.469 35.6526 111.231 35.063 110.752 34.5848C110.276 34.1066 109.482 33.6623 108.373 33.2504C105.351 32.1233 103.842 30.4744 103.842 28.3035C103.842 26.8844 104.371 25.7221 105.43 24.8165C106.485 23.9109 107.893 23.4567 109.654 23.4567C111.224 23.4567 112.527 23.7303 113.568 24.2762L112.877 26.5289C111.905 26 110.806 25.7348 109.575 25.7348C108.603 25.7348 107.842 25.9746 107.299 26.4528C106.838 26.8788 106.608 27.3993 106.608 28.0143C106.608 28.697 106.871 29.2598 107.4 29.7028C107.861 30.1132 108.696 30.5562 109.909 31.0344C111.393 31.6324 112.485 32.3307 113.186 33.1319C113.884 33.9345 114.234 34.9346 114.234 36.128Z" fill="white"/>
<path d="M123.372 30.5985H120.326V36.6401C120.326 38.1748 120.862 38.9436 121.938 38.9436C122.432 38.9436 122.843 38.8998 123.167 38.8152L123.242 40.9142C122.699 41.1187 121.982 41.2217 121.094 41.2217C120.002 41.2217 119.148 40.8874 118.533 40.223C117.921 39.5572 117.611 38.44 117.611 36.87V30.5985H115.795V28.525H117.611V26.2469L120.326 25.4287V28.525H123.372V30.5985Z" fill="white"/>
<path d="M134.249 34.733C134.249 33.5862 134.003 32.6016 133.508 31.7806C132.927 30.7876 132.099 30.2924 131.025 30.2924C129.914 30.2924 129.072 30.7876 128.491 31.7806C127.996 32.6016 127.75 33.6017 127.75 34.7852C127.75 35.932 127.996 36.9152 128.491 37.7361C129.089 38.7278 129.924 39.2243 131 39.2243C132.057 39.2243 132.885 38.7193 133.481 37.7107C133.993 36.8728 134.249 35.8784 134.249 34.733ZM137.118 34.6427C137.118 36.554 136.571 38.124 135.48 39.3527C134.335 40.6165 132.816 41.2471 130.923 41.2471C129.096 41.2471 127.643 40.6405 126.56 39.4302C125.476 38.2185 124.935 36.6895 124.935 34.8486C124.935 32.9204 125.492 31.3405 126.61 30.1133C127.726 28.8833 129.234 28.2697 131.127 28.2697C132.952 28.2697 134.421 28.8748 135.531 30.0879C136.589 31.2657 137.118 32.7835 137.118 34.6427Z" fill="white"/>
<path d="M146.102 30.9568C145.828 30.906 145.536 30.8807 145.23 30.8807C144.258 30.8807 143.506 31.2474 142.977 31.9823C142.516 32.6298 142.286 33.4493 142.286 34.4382V40.965H139.523L139.548 32.4422C139.548 31.0076 139.513 29.7028 139.445 28.525H141.853L141.953 30.906H142.03C142.322 30.0879 142.781 29.4292 143.412 28.9355C144.028 28.4911 144.694 28.2697 145.411 28.2697C145.666 28.2697 145.896 28.288 146.102 28.3204V30.9568Z" fill="white"/>
<path d="M155.826 33.4395C155.845 32.6213 155.664 31.9132 155.29 31.3151C154.811 30.5478 154.077 30.1641 153.087 30.1641C152.183 30.1641 151.449 30.5379 150.887 31.2911C150.425 31.8878 150.153 32.6044 150.068 33.4395H155.826ZM158.463 34.1575C158.463 34.6512 158.429 35.0701 158.361 35.4101H150.068C150.102 36.6401 150.502 37.5781 151.272 38.227C151.97 38.8068 152.874 39.0973 153.983 39.0973C155.211 39.0973 156.33 38.8999 157.339 38.5077L157.772 40.4275C156.594 40.9396 155.204 41.1963 153.601 41.1963C151.672 41.1963 150.157 40.6292 149.056 39.4923C147.957 38.3582 147.405 36.8362 147.405 34.9234C147.405 33.0473 147.917 31.4858 148.941 30.2402C150.016 28.9087 151.466 28.2443 153.293 28.2443C155.085 28.2443 156.442 28.9087 157.364 30.2402C158.095 31.2982 158.463 32.6044 158.463 34.1575Z" fill="white"/>
<path d="M62.2564 13.1382C62.2564 12.148 61.994 11.3891 61.4707 10.8615C60.946 10.3326 60.1814 10.0688 59.1757 10.0688C58.7469 10.0688 58.3829 10.0984 58.0811 10.1577V16.4954C58.2489 16.5208 58.555 16.5321 58.9994 16.5321C60.039 16.5321 60.8416 16.2429 61.4072 15.6646C61.9729 15.0863 62.2564 14.2441 62.2564 13.1382ZM63.6896 13.1002C63.6896 14.6264 63.2325 15.7746 62.3185 16.5462C61.4721 17.2572 60.2689 17.614 58.7102 17.614C57.9386 17.614 57.2756 17.5802 56.7227 17.5139V9.17589C57.4449 9.05881 58.2235 9.00098 59.0628 9.00098C60.5454 9.00098 61.6654 9.32259 62.42 9.96864C63.265 10.6979 63.6896 11.7418 63.6896 13.1002Z" fill="white"/>
<path d="M69.8751 14.4769C69.8751 13.914 69.7538 13.4302 69.5112 13.0268C69.2262 12.5387 68.82 12.2947 68.291 12.2947C67.7465 12.2947 67.3304 12.5387 67.0455 13.0268C66.8029 13.4302 66.6815 13.9225 66.6815 14.5009C66.6815 15.0651 66.8029 15.5489 67.0455 15.9524C67.3403 16.4404 67.7494 16.683 68.2783 16.683C68.7974 16.683 69.2051 16.4348 69.4985 15.9397C69.7496 15.5278 69.8751 15.0397 69.8751 14.4769ZM71.2843 14.4331C71.2843 15.3712 71.0163 16.1428 70.4789 16.7465C69.9174 17.3672 69.1712 17.6775 68.2417 17.6775C67.3431 17.6775 66.6294 17.3799 66.0961 16.7846C65.5644 16.1893 65.2992 15.4389 65.2992 14.5333C65.2992 13.5854 65.5728 12.811 66.1215 12.2072C66.6717 11.6035 67.4108 11.3016 68.3418 11.3016C69.2389 11.3016 69.9583 11.5993 70.5042 12.1945C71.0233 12.7729 71.2843 13.5191 71.2843 14.4331Z" fill="white"/>
<path d="M81.4687 11.4271L79.5573 17.5392H78.3132L77.5204 14.8845C77.3187 14.2229 77.1565 13.5642 77.0296 12.9111H77.0056C76.8885 13.5811 76.7249 14.2398 76.5147 14.8845L75.6726 17.5392H74.4143L72.6158 11.4271H74.0123L74.7035 14.3315C74.8713 15.0199 75.0096 15.673 75.1196 16.2937H75.1436C75.2437 15.783 75.4116 15.1327 75.6472 14.3442L76.5147 11.4271H77.6206L78.4514 14.2822C78.6531 14.9776 78.8154 15.649 78.9409 16.2937H78.979C79.0721 15.6645 79.2089 14.9945 79.3937 14.2822L80.1357 11.4271H81.4687Z" fill="white"/>
<path d="M88.5117 17.5393H87.1533V14.0396C87.1533 12.9605 86.7428 12.4202 85.9218 12.4202C85.5184 12.4202 85.1926 12.5698 84.9401 12.866C84.6904 13.1622 84.5634 13.512 84.5634 13.914V17.5393H83.205V13.1749C83.205 12.6389 83.1881 12.0563 83.1557 11.4272H84.349L84.4125 12.3821H84.4506C84.6086 12.0859 84.8442 11.8391 85.1545 11.6444C85.5226 11.4159 85.9345 11.3016 86.3859 11.3016C86.9572 11.3016 87.4312 11.4864 87.8078 11.8546C88.2775 12.3074 88.5117 12.9831 88.5117 13.8788V17.5393Z" fill="white"/>
<path d="M92.2584 17.5393H90.9015V8.62292H92.2584V17.5393Z" fill="white"/>
<path d="M98.8472 14.4769C98.8472 13.914 98.7259 13.4302 98.4819 13.0268C98.1983 12.5387 97.7907 12.2947 97.2645 12.2947C96.7172 12.2947 96.3025 12.5387 96.019 13.0268C95.7763 13.4302 95.6536 13.9225 95.6536 14.5009C95.6536 15.0651 95.7763 15.5489 96.019 15.9524C96.3124 16.4404 96.7228 16.683 97.2518 16.683C97.7709 16.683 98.1758 16.4348 98.4692 15.9397C98.7231 15.5278 98.8472 15.0397 98.8472 14.4769ZM100.258 14.4331C100.258 15.3712 99.9884 16.1428 99.4523 16.7465C98.8895 17.3672 98.1433 17.6775 97.2137 17.6775C96.3152 17.6775 95.6014 17.3799 95.0696 16.7846C94.5378 16.1893 94.2712 15.4389 94.2712 14.5333C94.2712 13.5854 94.5449 12.811 95.095 12.2072C95.6437 11.6035 96.3829 11.3016 97.3125 11.3016C98.211 11.3016 98.9304 11.5993 99.4777 12.1945C99.9968 12.7729 100.258 13.5191 100.258 14.4331Z" fill="white"/>
<path d="M105.422 15.4389V14.4952C103.924 14.4698 103.175 14.8817 103.175 15.7281C103.175 16.0469 103.259 16.2853 103.434 16.4446C103.609 16.604 103.832 16.683 104.099 16.683C104.398 16.683 104.676 16.5899 104.928 16.4009C105.185 16.2119 105.341 15.9707 105.399 15.6773C105.415 15.611 105.422 15.5306 105.422 15.4389ZM106.832 17.5393H105.612L105.511 16.834H105.473C105.055 17.3968 104.46 17.6775 103.688 17.6775C103.111 17.6775 102.644 17.4927 102.293 17.1231C101.974 16.7888 101.815 16.3741 101.815 15.879C101.815 15.1328 102.125 14.5629 102.752 14.168C103.377 13.7744 104.255 13.5811 105.387 13.5896V13.4768C105.387 12.6727 104.965 12.2693 104.119 12.2693C103.516 12.2693 102.984 12.4202 102.526 12.7221L102.249 11.8292C102.817 11.478 103.518 11.3016 104.347 11.3016C105.944 11.3016 106.744 12.1438 106.744 13.8294V16.0807C106.744 16.6915 106.775 17.1782 106.832 17.5393Z" fill="white"/>
<path d="M113.145 14.9607V13.9423C113.145 13.7659 113.132 13.6235 113.107 13.5149C113.031 13.1876 112.867 12.9139 112.616 12.6911C112.362 12.4696 112.059 12.3582 111.708 12.3582C111.201 12.3582 110.803 12.5585 110.511 12.9619C110.224 13.3639 110.075 13.8788 110.075 14.5079C110.075 15.1116 110.215 15.6025 110.494 15.9792C110.788 16.3812 111.186 16.5829 111.682 16.5829C112.128 16.5829 112.485 16.415 112.756 16.0807C113.017 15.7704 113.145 15.3966 113.145 14.9607ZM114.553 17.5393H113.348L113.285 16.5575H113.247C112.861 17.3037 112.205 17.6775 111.284 17.6775C110.548 17.6775 109.934 17.3883 109.449 16.81C108.963 16.2316 108.719 15.4812 108.719 14.5587C108.719 13.5685 108.982 12.7686 109.511 12.1565C110.023 11.5866 110.651 11.3016 111.399 11.3016C112.218 11.3016 112.794 11.5781 113.12 12.1311H113.145V8.62292H114.505V15.8917C114.505 16.487 114.52 17.0357 114.553 17.5393Z" fill="white"/>
<path d="M124.764 14.4769C124.764 13.914 124.643 13.4302 124.4 13.0268C124.114 12.5387 123.709 12.2947 123.18 12.2947C122.635 12.2947 122.219 12.5387 121.933 13.0268C121.69 13.4302 121.569 13.9225 121.569 14.5009C121.569 15.0651 121.69 15.5489 121.933 15.9524C122.228 16.4404 122.637 16.683 123.167 16.683C123.686 16.683 124.094 16.4348 124.387 15.9397C124.638 15.5278 124.764 15.0397 124.764 14.4769ZM126.172 14.4331C126.172 15.3712 125.904 16.1428 125.368 16.7465C124.805 17.3672 124.06 17.6775 123.129 17.6775C122.232 17.6775 121.518 17.3799 120.984 16.7846C120.452 16.1893 120.187 15.4389 120.187 14.5333C120.187 13.5854 120.46 12.811 121.009 12.2072C121.559 11.6035 122.298 11.3016 123.231 11.3016C124.126 11.3016 124.849 11.5993 125.392 12.1945C125.911 12.7729 126.172 13.5191 126.172 14.4331Z" fill="white"/>
<path d="M133.477 17.5393H132.12V14.0396C132.12 12.9605 131.71 12.4202 130.886 12.4202C130.484 12.4202 130.158 12.5698 129.907 12.866C129.656 13.1622 129.529 13.512 129.529 13.914V17.5393H128.17V13.1749C128.17 12.6389 128.155 12.0563 128.122 11.4272H129.314L129.378 12.3821H129.416C129.575 12.0859 129.811 11.8391 130.12 11.6444C130.489 11.4159 130.898 11.3016 131.353 11.3016C131.923 11.3016 132.395 11.4864 132.773 11.8546C133.244 12.3074 133.477 12.9831 133.477 13.8788V17.5393Z" fill="white"/>
<path d="M142.619 12.4456H141.124V15.4134C141.124 16.1681 141.389 16.5461 141.915 16.5461C142.159 16.5461 142.361 16.525 142.522 16.4827L142.557 17.5138C142.288 17.614 141.936 17.6647 141.501 17.6647C140.965 17.6647 140.546 17.5011 140.245 17.1739C139.94 16.8466 139.791 16.2979 139.791 15.5263V12.4456H138.898V11.4271H139.791V10.3085L141.124 9.90649V11.4271H142.619V12.4456Z" fill="white"/>
<path d="M149.813 17.5393H148.453V14.0636C148.453 12.9675 148.043 12.4202 147.223 12.4202C146.593 12.4202 146.163 12.739 145.927 13.3738C145.886 13.5078 145.864 13.6714 145.864 13.8633V17.5393H144.507V8.62292H145.864V12.306H145.889C146.316 11.6374 146.93 11.3016 147.724 11.3016C148.287 11.3016 148.752 11.4864 149.122 11.8546C149.583 12.3159 149.813 12.9986 149.813 13.9042V17.5393Z" fill="white"/>
<path d="M155.935 13.8421C155.945 13.4401 155.858 13.0917 155.673 12.7983C155.437 12.4202 155.078 12.2326 154.591 12.2326C154.148 12.2326 153.786 12.416 153.511 12.7856C153.285 13.079 153.151 13.4316 153.107 13.8421H155.935ZM157.232 14.1933C157.232 14.4374 157.215 14.6419 157.181 14.8098H153.107C153.125 15.4135 153.32 15.8748 153.697 16.1936C154.042 16.4785 154.488 16.621 155.033 16.621C155.635 16.621 156.184 16.5251 156.68 16.3318L156.893 17.2755C156.313 17.5266 155.632 17.6521 154.842 17.6521C153.896 17.6521 153.151 17.3728 152.611 16.8156C152.069 16.2584 151.801 15.5094 151.801 14.5714C151.801 13.6489 152.052 12.8815 152.556 12.2693C153.083 11.6162 153.794 11.2889 154.693 11.2889C155.571 11.2889 156.24 11.6162 156.69 12.2693C157.053 12.7898 157.232 13.4316 157.232 14.1933Z" fill="white"/>
</g>
<defs>
<clipPath id="clip0">
<rect width="174.778" height="52" fill="white"/>
</clipPath>
</defs>
</svg>
