<svg width="561" height="404" viewBox="0 0 561 404" fill="none" xmlns="http://www.w3.org/2000/svg">
<path d="M331.739 78.1514C333.255 81.79 335.262 85.1437 337.663 88.1469L334.14 95.5326L341.251 100.868L348.362 106.204L354.466 100.755C358.022 102.22 361.802 103.208 365.72 103.645L368.451 111.353L377.251 110.097L386.052 108.842L386.516 100.677C390.154 99.1612 393.508 97.154 396.511 94.7535L403.897 98.2761L409.233 91.1652L414.568 84.0518L409.119 77.9471C410.584 74.3917 411.573 70.6118 412.009 66.6933L419.717 63.9624L418.462 55.1621L417.206 46.3617L409.041 45.8978C407.526 42.2591 405.518 38.9054 403.118 35.9022L406.64 28.5165L399.527 23.1808L392.416 17.8451L386.311 23.2943C382.756 21.8292 378.976 20.8408 375.058 20.4045L372.327 12.696L363.526 13.9518L354.726 15.2075L354.262 23.3724C350.623 24.8879 347.27 26.8926 344.267 29.2956L336.881 25.773L331.545 32.8839L326.21 39.9947L331.659 46.0995C330.194 49.6549 329.205 53.4348 328.769 57.3533L321.06 60.0842L322.316 68.8845L323.572 77.6848L331.739 78.1514ZM365.988 31.1818C383.021 28.751 398.798 40.5848 401.232 57.6181C403.662 74.6514 391.829 90.4289 374.795 92.8623C357.762 95.2931 341.985 83.4593 339.551 66.426C337.12 49.3927 348.954 33.6151 365.988 31.1818Z" fill="url(#paint0_linear)"/>
<path d="M414.339 24.5148C414.906 25.8765 415.658 27.1322 416.558 28.2569L415.239 31.0231L417.902 33.0202L420.565 35.0172L422.852 32.9773C424.183 33.527 425.6 33.8951 427.065 34.059L428.087 36.9463L431.382 36.4747L434.678 36.0032L434.852 32.947C436.214 32.3797 437.47 31.6282 438.594 30.728L441.36 32.0468L443.357 29.384L445.355 26.7212L443.315 24.4342C443.864 23.1028 444.232 21.6856 444.396 20.2206L447.284 19.1968L446.812 15.9011L446.341 12.6054L443.284 12.4314C442.717 11.0698 441.966 9.81401 441.065 8.68938L442.384 5.9232L439.721 3.92611L437.059 1.92901L434.771 3.96897C433.44 3.41927 432.023 3.05112 430.558 2.88721L429.537 0L426.241 0.471535L422.945 0.94307L422.771 3.99923C421.41 4.56659 420.154 5.31802 419.029 6.21823L416.263 4.89944L414.266 7.56223L412.269 10.225L414.309 12.5121C413.759 13.8435 413.391 15.2606 413.227 16.7257L410.34 17.7469L410.811 21.0426L411.283 24.3383L414.339 24.5148ZM427.164 6.92427C433.543 6.01398 439.452 10.4469 440.362 16.824C441.272 23.2036 436.839 29.1117 430.462 30.022C424.082 30.9323 418.174 26.4993 417.264 20.1222C416.351 13.7452 420.784 7.83708 427.164 6.92427Z" fill="url(#paint1_linear)"/>
<path d="M265.566 154.732H263.884V331.283H265.566V154.732Z" fill="#F3F3F3"/>
<path d="M282.866 132.978H264.726V137.58H282.866V132.978Z" fill="white"/>
<path d="M279.24 141.484H264.726V146.086H279.24V141.484Z" fill="white"/>
<path d="M284.603 341.74H265.567V347.875H284.603V341.74Z" fill="white"/>
<path d="M334.605 93.1747C334.605 93.1747 371.425 136.831 348.068 165.1C324.71 193.37 318.285 165.653 318.285 165.653C318.285 165.653 304.308 168.247 328.52 132.89C339.931 116.224 334.605 93.1747 334.605 93.1747Z" fill="url(#paint2_linear)"/>
<path d="M415.311 59.1107C415.311 59.1107 442.665 99.4838 395.04 145.989C347.415 192.495 350.957 220.232 350.957 220.232C350.957 220.232 302.268 124.922 415.311 59.1107Z" fill="url(#paint3_linear)"/>
<path d="M342.065 202.69C322.084 204.493 345.267 150.47 376.482 136.367C407.697 122.264 434.105 123.459 452.356 108.579C452.356 108.579 440.45 193.811 342.065 202.69Z" fill="url(#paint4_linear)"/>
<path d="M98.3596 154.732H96.6777V331.283H98.3596V154.732Z" fill="url(#paint5_linear)"/>
<path d="M218.009 154.732H216.327V331.283H218.009V154.732Z" fill="#F3F3F3"/>
<path d="M337.657 154.732H335.976V331.283H337.657V154.732Z" fill="#F3F3F3"/>
<path d="M126.175 132.978H97.5176V137.58H126.175V132.978Z" fill="#E0E0E0"/>
<path d="M138.168 141.484H97.5176V146.086H138.168V141.484Z" fill="#E0E0E0"/>
<path d="M249.524 132.978H215.879V137.58H249.524V132.978Z" fill="white"/>
<path d="M237.393 141.484H215.879V146.086H237.393V141.484Z" fill="white"/>
<path d="M358.508 132.978H337.657V137.58H358.508V132.978Z" fill="white"/>
<path d="M361.957 141.484H337.657V146.086H361.957V141.484Z" fill="white"/>
<path d="M236.204 341.74H217.168V347.875H236.204V341.74Z" fill="white"/>
<path d="M356.692 341.74H337.657V347.875H356.692V341.74Z" fill="white"/>
<path d="M561 198.804V209.35C552.144 202.294 543.427 196.956 534.798 193.143C478.791 168.384 426.524 207.653 364.392 255.162C359.83 258.652 355.413 261.657 351.126 264.227C336.208 273.178 322.867 276.83 310.644 276.83C298.934 276.83 288.255 273.481 278.204 268.239C264.605 261.145 252.154 250.59 239.856 240.168C223.64 226.418 206.818 212.355 187.397 205.423C128.12 184.257 97.7924 222.901 97.5176 223.241V211.493C97.8403 211.084 103.244 204.067 118.901 197.354C133.145 191.247 157.05 186.383 190.022 197.849C210.913 205.113 228.267 219.829 245.04 234.054C263.163 249.415 279.957 263.649 299.406 267.737H299.416C308.141 269.568 317.405 269.348 327.562 266.257C337.29 263.309 347.845 257.731 359.528 248.79C398.189 219.232 434.631 191.048 470.495 180.76C493.568 174.131 517.283 175.061 540.555 186.212C547.421 189.492 554.25 193.673 561 198.804Z" fill="url(#paint6_linear)"/>
<path d="M33.9601 220.409H28.2109V245.237H33.9601V220.409Z" fill="#E0E0E0"/>
<path d="M48.2372 210.323H42.488V245.234H48.2372V210.323Z" fill="#E0E0E0"/>
<path d="M62.5143 205.063H56.7651V245.237H62.5143V205.063Z" fill="#E0E0E0"/>
<path d="M76.7934 202.869H71.0442V245.237H76.7934V202.869Z" fill="#E0E0E0"/>
<path d="M33.9601 229.661H28.2109V245.237H33.9601V229.661Z" fill="url(#paint7_linear)"/>
<path d="M48.2372 223.334H42.488V245.237H48.2372V223.334Z" fill="url(#paint8_linear)"/>
<path d="M62.5143 220.031H56.7651V245.237H62.5143V220.031Z" fill="url(#paint9_linear)"/>
<path d="M76.7934 218.656H71.0442V245.237H76.7934V218.656Z" fill="url(#paint10_linear)"/>
<path d="M181.745 356.92H361.734C370.082 356.92 376.85 350.152 376.85 341.803V93.9062C376.85 85.5572 370.082 78.7893 361.734 78.7893H181.745C173.396 78.7893 166.628 85.5572 166.628 93.9062V341.803C166.631 350.152 173.399 356.92 181.745 356.92Z" fill="url(#paint11_linear)"/>
<path d="M364.41 48.1849H189.22C183.615 48.1849 179.071 52.7288 179.071 58.3343V345.167H364.412V48.1849H364.41Z" fill="#F5F5F5"/>
<path d="M347.14 103.786H292.493V110.698H347.14V103.786Z" fill="url(#paint12_linear)"/>
<path d="M342.657 132.761H292.493V139.673H342.657V132.761Z" fill="url(#paint13_linear)"/>
<path d="M335.897 118.272H292.493V125.184H335.897V118.272Z" fill="url(#paint14_linear)"/>
<path d="M233.857 148.113C227.649 148.113 221.662 146.822 216.067 144.278C200.726 137.305 190.813 121.916 190.813 105.069C190.813 81.3337 210.124 62.0234 233.859 62.0234C257.595 62.0234 276.905 81.3337 276.905 105.069C276.905 121.916 266.993 137.305 251.649 144.278C246.051 146.822 240.065 148.113 233.857 148.113ZM233.857 64.2954C211.374 64.2954 193.083 82.587 193.083 105.069C193.083 121.026 202.473 135.603 217.005 142.21C222.305 144.62 227.974 145.843 233.854 145.843C239.735 145.843 245.403 144.62 250.703 142.21C265.235 135.606 274.626 121.026 274.626 105.069C274.631 82.587 256.339 64.2954 233.857 64.2954Z" fill="url(#paint15_linear)"/>
<path d="M253.603 165.441H190.811V171.604H253.603V165.441Z" fill="#E0E0E0"/>
<path d="M253.603 182.021H190.811V188.183H253.603V182.021Z" fill="#E0E0E0"/>
<path d="M253.603 198.603H190.811V204.765H253.603V198.603Z" fill="#E0E0E0"/>
<path d="M276.902 165.441H266.42V171.604H276.902V165.441Z" fill="#4E51E4"/>
<path d="M276.902 182.021H266.42V188.183H276.902V182.021Z" fill="#4E51E4"/>
<path d="M276.902 198.603H266.42V204.765H276.902V198.603Z" fill="#4E51E4"/>
<path d="M560.999 267.848V276.391C551.989 278.239 543.635 278.829 534.656 278.829C499.237 278.829 468.219 264.292 436.243 248.447C434.526 247.594 432.801 246.74 431.074 245.877C389.322 225.109 346.147 203.641 288.622 209.521C251.885 213.276 228.833 228.241 208.491 241.432C190.066 253.389 172.654 263.897 149.073 264.787C110.961 266.237 97.733 249.985 97.5137 248.989V238.557C97.5616 238.736 105.792 256.773 148.303 256.773H149.035C170.287 256.66 185.961 246.485 204.121 234.707C225.229 221.014 249.147 205.499 287.808 201.545C347.635 195.428 391.863 217.419 434.639 238.698C438.916 240.821 443.175 242.937 447.431 245.005C483.44 262.53 518.934 276.792 560.999 267.848Z" fill="url(#paint16_radial)"/>
<path d="M398.473 349.739H310.704C300.298 349.739 291.86 341.302 291.86 330.895V178.077C291.86 167.67 300.298 159.233 310.704 159.233H398.473C408.88 159.233 417.317 167.67 417.317 178.077V330.895C417.314 341.302 408.88 349.739 398.473 349.739Z" fill="#F5F5F5"/>
<path d="M402.65 187.568C399.576 178.972 391.358 173.692 382.699 173.951C380.603 174.014 378.48 174.403 376.397 175.147C370.091 177.403 365.567 182.426 363.709 188.362C362.42 192.475 362.413 197.026 363.976 201.399C364.132 201.833 364.301 202.261 364.48 202.68C365.302 204.574 366.382 206.286 367.663 207.791C373.036 214.108 381.952 216.778 390.226 213.82C400.91 210 406.47 198.247 402.65 187.568ZM388.498 208.981C382.295 211.2 375.611 209.198 371.581 204.463C370.62 203.333 369.811 202.049 369.196 200.63C369.06 200.317 368.934 199.997 368.815 199.669C367.642 196.391 367.65 192.979 368.616 189.895C370.008 185.445 373.399 181.678 378.13 179.988C379.691 179.431 381.282 179.138 382.855 179.09C389.346 178.894 395.508 182.853 397.813 189.3C400.675 197.304 396.505 206.117 388.498 208.981Z" fill="#E0E0E0"/>
<path d="M368.614 189.893L363.707 188.36C365.565 182.424 370.089 177.401 376.395 175.144C378.478 174.4 380.601 174.012 382.697 173.949L382.851 179.088C381.28 179.136 379.689 179.426 378.125 179.986C373.397 181.675 370.008 185.442 368.614 189.893Z" fill="#22249C"/>
<path d="M369.194 200.627L364.482 202.68C364.3 202.261 364.131 201.835 363.977 201.399C362.414 197.026 362.421 192.475 363.71 188.362L368.617 189.895C367.651 192.979 367.646 196.391 368.816 199.669C368.932 199.994 369.058 200.315 369.194 200.627Z" fill="#4E51E4"/>
<path d="M367.663 207.791C366.382 206.286 365.303 204.573 364.48 202.68L369.193 200.627C369.809 202.047 370.618 203.333 371.579 204.46L367.663 207.791Z" fill="#6063FF"/>
<path d="M383.132 306.73H372.062V343.026H383.132V306.73Z" fill="url(#paint17_linear)"/>
<path d="M366.677 316.91H355.607V343.026H366.677V316.91Z" fill="url(#paint18_linear)"/>
<path d="M399.096 289.909H388.026V343.026H399.096V289.909Z" fill="url(#paint19_linear)"/>
<path d="M308.621 302.991L307.658 302.252L325.697 278.781L347.96 279.989L364.747 253.253L382.834 251.387L393.702 229.893L394.784 230.44L383.618 252.527L365.46 254.4L348.606 281.237L326.27 280.027L308.621 302.991Z" fill="#46BBED"/>
<path d="M342.736 186.279H311.256C309.269 186.279 307.658 184.668 307.658 182.681C307.658 180.694 309.269 179.083 311.256 179.083H342.736C344.723 179.083 346.334 180.694 346.334 182.681C346.334 184.668 344.723 186.279 342.736 186.279Z" fill="#4E51E4"/>
<path d="M342.736 198.835H311.256C309.269 198.835 307.658 197.223 307.658 195.236C307.658 193.249 309.269 191.638 311.256 191.638H342.736C344.723 191.638 346.334 193.249 346.334 195.236C346.334 197.223 344.723 198.835 342.736 198.835Z" fill="#E0E0E0"/>
<path d="M342.736 211.389H311.256C309.269 211.389 307.658 209.778 307.658 207.791C307.658 205.804 309.269 204.193 311.256 204.193H342.736C344.723 204.193 346.334 205.804 346.334 207.791C346.334 209.778 344.723 211.389 342.736 211.389Z" fill="#E0E0E0"/>
<path d="M54.197 286.87H66.8705L62.9898 278.827H50.3188L54.197 286.87Z" fill="url(#paint20_linear)"/>
<path d="M48.2669 286.87H51.2877L47.4095 278.827H44.3887L48.2669 286.87Z" fill="url(#paint21_linear)"/>
<path d="M269.308 28.1635H294.398V23.6196H269.308V28.1635Z" fill="url(#paint22_linear)"/>
<path d="M269.308 22.3537H294.398V21.4989H269.308V22.3537Z" fill="url(#paint23_linear)"/>
<path d="M239.466 81.4827H228.247V128.654H239.466V81.4827Z" fill="url(#paint24_linear)"/>
<path d="M210.268 110.678V99.459H257.442V110.678H210.268Z" fill="url(#paint25_linear)"/>
<path d="M69.6514 126.261C58.8943 121.172 46.4553 123.878 38.7166 132.098C36.843 134.088 35.2444 136.403 34.0113 139.007C30.2768 146.9 30.7383 155.698 34.498 162.882C37.1028 167.859 41.2886 172.063 46.7604 174.65C47.3051 174.907 47.8548 175.147 48.407 175.364C50.9109 176.35 53.483 176.935 56.0525 177.141C66.8272 178.011 77.5061 172.255 82.403 161.904C88.7221 148.542 83.0132 132.583 69.6514 126.261ZM76.3437 159.039C72.6722 166.8 64.6662 171.115 56.587 170.464C54.6605 170.308 52.7315 169.872 50.8555 169.13C50.4419 168.966 50.0284 168.787 49.6199 168.596C45.5198 166.654 42.3804 163.505 40.4287 159.773C37.6096 154.387 37.2641 147.79 40.0631 141.875C40.986 139.92 42.1863 138.188 43.5908 136.695C49.393 130.532 58.7203 128.503 66.7843 132.318C76.8051 137.056 81.0842 149.018 76.3437 159.039Z" fill="#E0E0E0"/>
<path d="M40.4274 159.773L34.4941 162.882C30.737 155.698 30.2755 146.9 34.0075 139.008C35.2405 136.403 36.8392 134.088 38.7127 132.098L43.5895 136.693C42.185 138.186 40.9872 139.92 40.0618 141.872C37.2628 147.79 37.6108 154.387 40.4274 159.773Z" fill="#22249C"/>
<path d="M50.854 169.128L48.4005 175.361C47.8483 175.144 47.2986 174.905 46.7539 174.647C41.2846 172.06 37.0963 167.857 34.4915 162.879L40.4248 159.77C42.3765 163.502 45.5158 166.652 49.6159 168.593C50.0295 168.787 50.4405 168.966 50.854 169.128Z" fill="#4E51E4"/>
<path d="M56.0453 177.142C53.4759 176.935 50.9038 176.352 48.3999 175.364L50.8534 169.13C52.7295 169.872 54.661 170.308 56.585 170.464L56.0453 177.142Z" fill="#6063FF"/>
<path d="M49.9803 194.782H0V193.789H48.9868V172.615H49.9803V194.782Z" fill="#5D96FF"/>
<path d="M26.3077 183.45H0V189.411H26.3077V183.45Z" fill="#E0E0E0"/>
<path d="M187.504 281.23H146.651V283.656H187.504V281.23Z" fill="#CCCDD3"/>
<path d="M152.126 400.251H155.707V289.967H152.126V400.251Z" fill="#706865"/>
<path d="M209.506 280.544H181.111V284.006H209.506V280.544Z" fill="#CCBDB7"/>
<path d="M200.683 250.996H189.931V283.656H200.683V250.996Z" fill="#CCCDD3"/>
<path d="M289.327 283.696H131.998V289.967H289.327V283.696Z" fill="#CDCEEA"/>
<path d="M101.803 245.744C101.803 245.744 100.083 269.875 104.796 272.762C107.749 274.57 119.527 280.673 119.176 281.817C118.826 282.962 112.527 292 112.527 292C112.527 292 89.9059 277.102 89.1771 272.409C88.4635 267.823 90.2917 237.077 93.3983 235.66C95.7282 234.598 96.9562 235.476 99.8914 237.654C104.012 240.713 101.803 245.744 101.803 245.744Z" fill="#F5F5F5"/>
<path d="M129.635 385.192C129.635 385.192 128.931 390.074 128.843 390.808C128.755 391.542 121.019 390.377 121.019 390.377L120.393 384.564C120.393 384.564 128.669 384.504 129.635 385.192Z" fill="#424773"/>
<path d="M128.925 390.187C128.925 390.187 131.376 393.13 133.747 394.411C136.117 395.692 139.844 396.201 141.246 397.528C142.257 398.486 144.932 402.611 135.086 402.528C125.239 402.445 120.491 403.11 119.434 401.529C118.38 399.948 120.96 389.854 120.96 389.854C120.96 389.854 123.295 390.697 128.925 390.187Z" fill="#292C47"/>
<path d="M179.207 385.24C179.207 385.24 178.504 390.122 178.416 390.856C178.327 391.589 170.591 390.424 170.591 390.424L169.966 384.612C169.966 384.61 178.239 384.552 179.207 385.24Z" fill="#424773"/>
<path d="M178.499 390.235C178.499 390.235 180.95 393.178 183.32 394.459C185.69 395.742 194.415 396.794 195.817 398.123C196.828 399.081 198.512 402.939 184.656 402.578C174.812 402.321 170.061 403.161 169.005 401.58C167.951 399.999 170.53 389.905 170.53 389.905C170.53 389.905 172.732 390.8 178.499 390.235Z" fill="#292C47"/>
<path d="M104.677 300.853C104.677 300.853 132.806 305.613 139.16 306.609C145.515 307.608 179.962 316.179 184.271 318.791C187.701 320.871 182.473 370.806 181.25 389.857H167.684L166.701 332.708C150.419 333.114 138.8 328.898 126.943 330.701C115.087 332.501 105.202 335.06 97.6675 324.954C97.6649 324.954 97.385 303.059 104.677 300.853Z" fill="#292C47"/>
<path d="M132.404 389.903L119.181 389.086L117.892 332.708C110.882 332.882 108.479 332.438 102.808 331.75L92.1318 306.935C101.489 308.806 131.466 316.366 135.463 318.791C138.892 320.872 133.625 370.852 132.404 389.903Z" fill="#292C47"/>
<path d="M117.628 195.41C117.628 195.41 127.939 192.561 131.875 200.564C135.809 208.57 134.026 223.745 128.829 225.172C123.632 226.6 116.158 224.956 114.002 219.973C111.844 214.99 110.124 207.912 110.641 203.325C111.153 198.746 114.89 196.507 117.628 195.41Z" fill="#EEA886"/>
<path d="M126.132 223.576C126.132 223.576 126.019 229.663 126.69 230.962C127.36 232.261 112.332 231.935 112.332 231.935C112.332 231.935 114.7 224.625 113.356 218.397C112.027 212.232 126.132 223.576 126.132 223.576Z" fill="#EEA886"/>
<path d="M112.549 216.092C112.549 216.092 113.353 217.726 117.241 217.461C121.13 217.197 126.263 212.504 127.915 212.085C129.567 211.667 129.665 210.726 129.665 210.726L130.54 212.28L132.232 212.537C132.232 212.537 131.082 207.834 133.589 206.177C136.095 204.521 132.462 191.182 119.775 194.399C119.775 194.399 110.093 196.172 109.964 201.578C109.83 206.982 110.667 213.228 112.549 216.092Z" fill="#3A3F47"/>
<path d="M127.483 230.806C127.483 230.806 127.44 228.327 126.318 228.087C125.193 227.85 114.504 226.38 113.122 226.923L112.53 230.196C112.53 230.198 115.19 231.835 127.483 230.806Z" fill="#E2D2CA"/>
<path d="M130.575 209.617C130.288 207.584 127.975 205.249 126.651 208.416C125.328 211.581 127.544 216.193 129.029 215.946C130.515 215.696 130.966 212.375 130.575 209.617Z" fill="#EEA886"/>
<path d="M172.258 260.107C172.253 260.104 172.248 260.104 172.24 260.104C172.316 260.137 172.329 260.142 172.258 260.107Z" fill="#323657"/>
<path d="M114.621 196.863C114.621 196.863 102.048 196.27 112.427 215.898L114.621 196.863Z" fill="#3A3F47"/>
<path d="M86.6069 396.592L87.5424 399.222L127.061 386.978L125.167 381.649L86.6069 396.592Z" fill="#918783"/>
<path d="M128.416 342.139H123.925V385.104H128.416V342.139Z" fill="#918783"/>
<path d="M139.417 339.857H112.925V342.388H139.417V339.857Z" fill="#5E5854"/>
<path d="M166.08 396.592L165.145 399.222L125.626 386.977L127.364 381.317L166.08 396.592Z" fill="#918783"/>
<path d="M138.237 398.94V402.001L125.626 386.977L127.364 381.317L138.237 398.94Z" fill="#918783"/>
<path d="M166.081 403.945C168.121 403.945 169.775 402.291 169.775 400.251C169.775 398.211 168.121 396.557 166.081 396.557C164.041 396.557 162.387 398.211 162.387 400.251C162.387 402.291 164.041 403.945 166.081 403.945Z" fill="#BFB2AC"/>
<path d="M134.858 403.945C136.899 403.945 138.553 402.291 138.553 400.251C138.553 398.211 136.899 396.557 134.858 396.557C132.818 396.557 131.164 398.211 131.164 400.251C131.164 402.291 132.818 403.945 134.858 403.945Z" fill="#BFB2AC"/>
<path d="M86.6067 403.945C88.6469 403.945 90.3008 402.291 90.3008 400.251C90.3008 398.211 88.6469 396.557 86.6067 396.557C84.5665 396.557 82.9126 398.211 82.9126 400.251C82.9126 402.291 84.5665 403.945 86.6067 403.945Z" fill="#BFB2AC"/>
<path d="M153.406 339.857H99.2854C96.9 339.857 94.9634 337.923 94.9634 335.535V334.587C94.9634 332.201 96.8974 330.267 99.2854 330.267H153.406C155.792 330.267 157.726 332.201 157.726 334.587V335.535C157.726 337.92 155.792 339.857 153.406 339.857Z" fill="#CECEEA"/>
<path d="M269.198 289.967H265.618V400.251H269.198V289.967Z" fill="#706865"/>
<path d="M237.42 266.728H153.192C150.812 266.728 148.883 264.799 148.883 262.419V205.539C148.883 203.159 150.812 201.23 153.192 201.23H237.42C239.801 201.23 241.73 203.159 241.73 205.539V262.419C241.732 264.799 239.801 266.728 237.42 266.728Z" fill="#CCCDD3"/>
<path d="M238.097 204.768H152.52V256.463H238.097V204.768Z" fill="#F5F7FF"/>
<path d="M234.295 261.342C234.295 262.812 232.752 264.002 230.846 264.002C228.942 264.002 227.396 262.81 227.396 261.342C227.396 259.872 228.939 258.682 230.846 258.682C232.749 258.679 234.295 259.872 234.295 261.342Z" fill="#D5D6DC"/>
<path d="M214.533 283.779V282.614C214.533 282.614 212.894 275.365 201.302 275.365C189.71 275.365 189.945 283.779 189.945 283.779H214.533Z" fill="#CCCDD3"/>
<path d="M189.802 276.441C189.802 276.441 192.321 276.245 193.241 275.69C194.164 275.132 199.684 271.421 200.98 272.016C202.276 272.611 210.905 275.254 210.605 276.514C210.305 277.775 209.508 277.654 208.898 277.432C208.29 277.208 202.024 275.894 201.471 276.116C201.471 276.116 207.627 278.36 207.649 279.999C207.675 281.638 206.361 282.037 205.778 282.657C205.196 283.277 204.495 284.815 202.909 284.931C201.323 285.05 193.584 282.357 191.993 282.233C190.399 282.11 187.451 282.332 187.252 282.072C187.051 281.812 189.802 276.441 189.802 276.441Z" fill="#EEA886"/>
<path d="M143.96 234.243C135.932 232.831 127.482 230.806 127.482 230.806L112.529 230.195C112.529 230.195 98.8062 233.216 93.4 235.657C92.8881 235.889 92.8856 247.899 91.4785 251.049L95.9594 260.502C95.9594 260.502 98.549 279.228 99.0836 287.556C99.3307 291.379 98.3876 324.505 98.3876 324.505C98.3876 324.505 99.7317 325.168 109.937 326.293C120.141 327.418 145.64 325.887 145.801 324.682C145.962 323.476 140.864 279.8 140.637 277.538C140.291 274.066 141.64 258.026 141.64 258.026C143.562 260.608 148.464 272.273 153.575 277.821C156.581 281.086 171.463 283.086 174.267 283.179C180.372 283.383 191.512 284.599 191.838 284.004C192.097 283.645 192.808 274.116 192.11 273.884C191.5 273.68 170.815 272.49 165.515 269.678C163.576 268.65 157.781 256.011 157.781 256.011C157.781 256.011 148.391 236.235 143.96 234.243Z" fill="#DBDFF0"/>
<path d="M115.287 323.549H88.5983C84.0165 323.549 80.3022 319.835 80.3022 315.253V271.902C80.3022 267.321 84.0165 263.606 88.5983 263.606H115.287C119.868 263.606 123.583 267.321 123.583 271.902V315.253C123.583 319.835 119.868 323.549 115.287 323.549Z" fill="#CECEEA"/>
<path d="M115.913 337.469C109.534 337.469 104.357 335.325 100.529 331.099C91.8775 321.547 93.4308 304.754 93.5014 304.045C93.6325 302.721 94.8152 301.756 96.1365 301.887C97.4603 302.018 98.4261 303.195 98.295 304.519C98.2773 304.711 96.898 319.931 104.107 327.877C107.025 331.092 110.885 332.653 115.913 332.653C117.242 332.653 118.321 333.732 118.321 335.061C118.321 336.39 117.242 337.469 115.913 337.469Z" fill="#CECEEA"/>
<path d="M183.035 211.616H159.204C158.863 211.616 158.586 211.339 158.586 210.999V209.503C158.586 209.163 158.863 208.885 159.204 208.885H183.035C183.376 208.885 183.653 209.163 183.653 209.503V210.999C183.653 211.339 183.376 211.616 183.035 211.616Z" fill="#DFE1E8"/>
<path d="M183.035 217.474H159.204C158.863 217.474 158.586 217.197 158.586 216.856V215.361C158.586 215.021 158.863 214.743 159.204 214.743H183.035C183.376 214.743 183.653 215.021 183.653 215.361V216.856C183.653 217.199 183.376 217.474 183.035 217.474Z" fill="#DFE1E8"/>
<path d="M181.575 252.347H160.664C159.516 252.347 158.586 251.417 158.586 250.27V223.541C158.586 222.394 159.516 221.463 160.664 221.463H181.575C182.723 221.463 183.653 222.394 183.653 223.541V250.27C183.653 251.417 182.723 252.347 181.575 252.347Z" fill="#DFE1E8"/>
<path d="M230.068 252.348H192.005C190.189 252.348 188.717 250.875 188.717 249.06V212.176C188.717 210.361 190.189 208.888 192.005 208.888H230.068C231.884 208.888 233.356 210.361 233.356 212.176V249.06C233.359 250.875 231.886 252.348 230.068 252.348Z" fill="#DFE1E8"/>
<path d="M343.018 234.815C343.018 234.815 344.682 231.214 344.954 230.672C345.227 230.129 346.818 229.27 348.709 228.793C350.545 228.332 353.044 227.404 353.329 227.58C353.614 227.759 353.949 227.784 354.287 228.576C354.627 229.37 354.478 230.228 354.478 230.228C354.478 230.228 355.356 231.009 355.094 232.051C355.094 232.051 355.885 232.823 355.394 233.96C355.394 233.96 356.148 234.734 355.719 235.528C355.719 235.528 354.244 236.365 353.788 236.832C353.331 237.298 350.144 238.829 346.863 239.827C346.866 239.83 343.444 239.724 343.018 234.815Z" fill="#8E4F3A"/>
<path d="M346.866 239.83C346.866 239.83 342.794 240.542 341.414 239.747C340.035 238.953 341.641 234.805 341.641 234.805L344.218 233.247L346.866 239.83Z" fill="#8E4F3A"/>
<path d="M348.377 233.07C348.377 233.07 348.313 235.062 348.013 235.612C347.713 236.161 351.768 237.019 351.768 237.019C351.768 237.019 350.795 233.211 348.377 233.07Z" fill="#5E3527"/>
<path d="M352.82 227.755C352.82 227.755 348.375 229.916 348.632 230.675C348.891 231.434 349.446 231.555 349.446 231.555L348.019 233.274C348.019 233.274 347.716 234.946 349.625 234.787C349.625 234.787 349.181 236.32 351.007 235.945C351.007 235.945 351.166 237.087 352.041 237.062C352.916 237.039 355.72 235.529 355.72 235.529C355.72 235.529 356.227 234.918 355.453 233.932C355.453 233.932 356.002 232.868 355.168 232.019C355.168 232.019 355.422 230.644 354.512 229.737C354.512 229.737 354.605 228.206 353.292 227.555C353.292 227.56 353.007 227.661 352.82 227.755Z" fill="#7A4432"/>
<path d="M345.087 230.589C345.087 230.589 348.479 230.662 350.315 231.514C350.731 231.708 351.096 231.97 351.074 232.427C351.051 232.886 350.36 233.433 348.887 233.478C347.417 233.521 345.536 234.252 345.536 234.252C345.536 234.252 344.011 233.854 345.087 230.589Z" fill="#8E4F3A"/>
<path d="M354.51 229.739C354.51 229.739 349.434 231.476 349.088 231.895C348.743 232.313 348.09 230.463 348.41 230.125C348.73 229.787 352.682 227.679 353.118 227.563C353.552 227.447 355.044 228.465 354.51 229.739Z" fill="#8E4F3A"/>
<path d="M352.171 227.775C352.171 227.775 360.077 226.156 360.238 227.119C360.399 228.082 359.633 228.244 353.155 230.135C346.856 231.973 352.171 227.775 352.171 227.775Z" fill="#8E4F3A"/>
<path d="M297.849 389.902C297.849 389.902 300.368 393.672 303.9 394.487C307.433 395.301 310.915 396.597 310.941 398.826C310.968 401.055 300.723 402.387 296.681 400.137C290.647 396.781 290.032 397.795 289.363 396.116C288.695 394.439 290.168 389.953 290.122 389.421C290.072 388.76 297.849 389.902 297.849 389.902Z" fill="#353A3D"/>
<path d="M297.458 388.041C297.458 388.041 297.917 389.862 297.849 389.9C297.781 389.938 289.886 390.878 290.125 389.418C290.32 388.233 290.595 386.944 290.595 386.944L297.458 388.041Z" fill="#81807E"/>
<path d="M271.282 389.653C271.282 389.653 273.08 393.259 276.149 394.487C279.429 395.8 282.062 397.308 282.001 399.482C281.941 401.656 273.978 403.857 268.186 399.686C264.527 397.051 263.364 397.039 262.779 395.379C262.192 393.72 263.798 389.408 263.778 388.886C263.75 388.241 271.282 389.653 271.282 389.653Z" fill="#353A3D"/>
<path d="M271.369 387.779C271.369 387.779 271.347 389.618 271.279 389.653C271.211 389.688 263.58 390.316 263.774 388.886C263.928 387.752 264.516 386.38 264.516 386.38L271.369 387.779Z" fill="#81807E"/>
<path d="M299.348 277.647C299.348 277.647 306.436 308.914 308.055 318.441C309.434 326.548 310.531 334.988 309.87 340.84C309.053 348.085 298.796 385.636 299.224 387.759C299.653 389.882 286.997 388.591 286.997 388.591C286.997 388.591 296.292 346.214 294.733 338.417C293.578 332.642 283.467 294.289 281.919 296.256C280.368 298.223 278.446 332.453 277.299 338.137C276.152 343.818 272.629 388.717 272.629 388.717C272.629 388.717 264.752 389.88 262.649 388.1C262.649 388.1 261.69 349.762 262.422 339.108C262.702 335.048 257.663 290.429 264.121 272.465C267.538 262.971 299.348 277.647 299.348 277.647Z" fill="#2D3133"/>
<path d="M345.644 241.371C345.644 241.371 321.086 246.815 316.199 245.615C313.94 245.06 310.964 241.941 308.138 238.274C307.205 237.066 306.292 235.801 305.422 234.545C305.419 234.542 305.419 234.54 305.419 234.54C301.95 229.532 299.231 224.731 299.231 224.731C299.231 224.731 288.979 212.716 297.207 207.357C297.207 207.357 300.192 206.238 302.936 209.178C305.679 212.118 308.899 218.266 309.618 219.834C310.336 221.4 320.408 235.927 320.93 236.255C321.452 236.582 325.852 235.425 329.382 235.13C335.136 234.651 343.758 232.409 343.758 232.409L345.644 241.371Z" fill="#DBDFF0"/>
<path d="M289.508 204.677C289.508 204.677 300.063 206.861 301.317 207.968C302.676 209.148 305.074 220.709 305.218 223.929C305.361 227.149 303.944 240.602 302.585 245.612C301.226 250.623 301.475 275.296 302.335 282.238C302.335 282.238 281.081 288.275 260.185 285.554C260.185 285.554 263.687 259.594 262.852 252.731C261.781 243.935 259.204 223.675 259.204 223.675C259.204 223.675 261.054 209.561 262.915 207.988C264.776 206.414 277.596 204.674 277.596 204.674H289.508V204.677Z" fill="#BCC0CF"/>
<path d="M285.146 172.037C285.146 172.037 297.843 167.34 297.051 184.212C296.257 201.086 293.281 202.801 284.93 200.443C276.578 198.085 275.877 187.437 274.79 182.313C273.703 177.189 280.993 172.774 285.146 172.037Z" fill="#8E4F3A"/>
<path d="M291.17 206.962C291.17 206.962 288.558 208.689 278.648 204.324C278.648 204.324 278.928 197.531 276.984 191.186C275.04 184.842 290.28 199.646 290.28 199.646C290.121 199.76 290.091 200.393 290.182 201.278C290.26 202.027 290.424 202.957 290.671 203.9C291.228 206.021 291.17 205.111 291.17 206.962Z" fill="#8E4F3A"/>
<path d="M276.551 190.685C276.551 190.685 276.515 186.176 278.389 185.762C280.262 185.346 280.512 183.849 280.512 183.849L281.586 184.098C281.586 184.098 281.39 183.304 283.177 182.257C284.965 181.211 295.654 182.131 296.996 180.593C298.337 179.055 296.391 169.922 293.476 169.024C290.558 168.126 283.783 168.21 277.595 169.95C277.595 169.95 272.894 171.135 272.539 176.667C272.307 180.245 275.025 188.241 276.551 190.685Z" fill="#2D3133"/>
<path d="M290.67 203.9C280.828 202.246 279.358 196.648 279.335 196.562C283.161 201.497 290.181 201.28 290.181 201.28C290.259 202.027 290.423 202.957 290.67 203.9Z" fill="#633029"/>
<path d="M290.236 209.178C290.236 209.178 292.029 211.823 293.111 218.609C294.193 225.394 294.009 237.087 294.009 237.087L291.517 237.389C291.517 237.389 287.745 213.545 288.396 209.39L290.236 209.178Z" fill="#434343"/>
<path d="M280.511 183.849C279.951 182.361 276.784 182.55 277.107 184.905C277.432 187.263 280.05 190.894 281.099 190.213C282.15 189.532 281.285 185.899 280.511 183.849Z" fill="#8E4F3A"/>
<path d="M301.452 207.958C301.452 207.958 307.451 215.893 305.227 236.653C301.213 274.169 311.728 334.392 311.728 334.392L300.88 337.786C300.88 337.786 290.514 260.8 293.154 232.858C294.357 220.127 297.927 215.891 292.294 205.282C292.294 205.285 297.778 205.562 301.452 207.958Z" fill="#DBDFF0"/>
<path d="M274.675 205.111C274.675 205.111 291.844 222.454 293.188 235.602C294.532 248.749 296.724 337.789 296.724 337.789L255.849 335.408C255.849 335.408 259.606 288.406 260.521 282.526C261.439 276.645 263.335 242.886 259.197 227.22C256.976 218.803 259.618 208.126 264.697 206.961C269.778 205.796 274.675 205.111 274.675 205.111Z" fill="#DBDFF0"/>
<path d="M268.873 207.357C268.873 207.357 275.485 209.178 271.846 221.314C268.997 230.821 268.611 232.861 268.611 232.861L253.353 229.05C253.353 229.05 257.826 208.169 265.126 207.047C265.131 207.047 267.454 206.714 268.873 207.357Z" fill="#DBDFF0"/>
<path d="M318.895 271.59L288.986 302.54L269.121 283.345L298.253 251.644L318.895 271.59Z" fill="#616161"/>
<path d="M316.067 272.205L289.505 299.693L271.862 282.644L297.736 254.491L316.067 272.205Z" fill="#F0F0FF"/>
<path d="M309.944 267.613L311.81 265.684L304.677 258.79L302.533 260.452L309.944 267.613Z" fill="#616161"/>
<path d="M278.653 202.445C278.653 202.445 283.833 205.569 288.957 206.273L286.231 210.623L277.594 204.677L278.653 202.445Z" fill="#A7AAB8"/>
<path d="M290.671 203.9C290.671 203.9 290.127 205.691 288.957 206.276L291.516 209.846L291.423 205.111L290.671 203.9Z" fill="#A7AAB8"/>
<path d="M288.956 206.276L290.983 209.102C290.983 209.102 289.699 210.724 286.936 209.496L288.956 206.276Z" fill="#434343"/>
<path d="M308.137 238.272V238.275C307.204 237.067 306.292 235.801 305.422 234.545C305.419 234.543 305.419 234.54 305.419 234.54C305.419 234.54 305.747 225.392 305.46 222.764C305.46 222.764 308.448 232.619 308.137 238.272Z" fill="#A7AAB8"/>
<path d="M266.003 232.207C266.003 232.207 264.009 245.181 264.15 246.013C264.289 246.845 255.123 243.408 266.003 232.207Z" fill="#A7AAB8"/>
<path d="M302.009 227.565H297.191V234.921H302.009V227.565Z" fill="#C6CAD9"/>
<path d="M280.59 262.835C280.59 262.835 281.031 263.707 281.765 264.002C283.031 264.512 285.055 263.705 285.837 265.515C286.621 267.326 281.571 271.58 280.305 271.802C279.039 272.023 277.246 269.951 276.079 265.957C274.911 261.962 280.59 262.835 280.59 262.835Z" fill="#8E4F3A"/>
<path d="M285.49 264.948C285.49 264.948 287.664 266.892 289.812 269.361C291.698 271.529 293.511 274.439 293.186 274.989C292.465 276.209 290.712 273.483 288.695 271.466C286.839 269.608 287.147 269.933 287.147 269.933C287.147 269.933 287.144 269.734 288.763 272.17C290.505 274.787 292.023 277.659 291.61 278.297C291.411 278.607 290.599 279.366 290.21 278.116C290.558 278.701 290.619 278.557 290.387 278.736C289.182 279.654 286.017 276.229 284.759 274.87C285.717 275.922 286.307 276.802 285.22 276.89C283.977 276.991 279.723 271.938 278.024 270.281C276.173 268.473 285.49 264.948 285.49 264.948Z" fill="#8E4F3A"/>
<path d="M269.665 208.169C271.05 208.704 271.574 211.162 271.004 218.283C270.434 225.404 267.928 228.68 266.993 230.326C266.057 231.973 260.913 242.127 261.838 243.461C262.764 244.798 271.496 253.411 272 254.112C272.505 254.813 282.256 263.639 282.256 263.639L277.293 270.576C277.293 270.576 256.241 254.133 254.599 252.491C252.957 250.85 248.048 247.4 249.863 241.666C251.709 235.836 255.025 222.192 255.615 221.123C256.203 220.056 260.512 204.626 269.665 208.169Z" fill="#DBDFF0"/>
<path d="M451.352 376.019C451.352 376.019 450.619 377.756 449.232 379.564C448.216 380.89 445.051 386.34 443.659 386.72C442.265 387.101 437.96 387.86 437.58 390.266C437.199 392.671 437.01 394.381 441.254 394.573C445.497 394.762 448.284 395.016 450.309 392.038C452.336 389.063 455.566 386.91 455.566 386.91V394.676H457.213C457.213 394.676 457.972 386.594 458.415 386.024C458.859 385.455 459.999 379.249 456.073 376.019C452.144 372.789 451.352 376.019 451.352 376.019Z" fill="#163342"/>
<path d="M443.658 386.72C443.658 386.72 447.458 387.671 448.915 386.72C450.373 385.77 455.323 377.401 456.964 376.899C456.964 376.899 455.376 373.674 451.354 376.016C451.351 376.019 444.735 385.328 443.658 386.72Z" fill="#EEA886"/>
<path d="M452.351 188.713C452.351 188.713 444.159 205.986 449.8 207.02C457.543 208.437 460.675 194.132 460.675 194.132L452.351 188.713Z" fill="#163342"/>
<path d="M407.613 231.628C407.613 231.628 405.051 230.823 404.844 229.305C404.667 228.014 403.51 226.474 403.154 225.997C402.678 225.362 401.944 222.865 401.137 223.458C400.33 224.05 402.151 227.629 402.383 228.456C402.615 229.283 399.112 227.709 398.245 227.926C397.378 228.143 395.101 234.094 397.63 234.893C400.159 235.693 403.389 234.883 403.808 235.11C404.226 235.337 405.626 235.766 405.626 235.766L407.613 231.628Z" fill="#EEA886"/>
<path d="M398.879 227.977C398.879 227.977 390.973 226.038 390.338 226.348C389.703 226.658 389.624 227.094 390.356 227.306C391.087 227.518 397.941 229.401 397.941 229.401C397.941 229.401 388.197 228.678 387.622 228.819C387.284 228.902 387.08 229.734 387.461 229.883C387.842 230.032 397.456 231.303 397.456 231.303C397.456 231.303 388.359 230.642 387.912 230.904C387.521 231.134 387.526 231.946 388.197 232.039C388.868 232.135 397.277 233.224 397.277 233.224C397.277 233.224 390.625 233.161 390.378 233.605C390.227 233.877 390.018 234.588 391.735 234.551C393.452 234.513 397.512 234.851 397.512 234.851L398.879 227.977Z" fill="#EEA886"/>
<path d="M472.595 381.052C472.595 381.052 468.351 387.354 466.641 388.874C466.641 388.874 462.841 390.268 462.46 392.926C462.08 395.587 462.143 397.362 466.641 397.488C471.137 397.614 474.085 396.807 474.909 394.084C475.734 391.36 477.534 389.507 477.534 389.507V395.206H478.548C478.548 395.206 478.8 389.696 478.866 388.682C478.929 387.669 479.594 383.773 477.456 382.048C475.318 380.323 472.595 381.052 472.595 381.052Z" fill="#163342"/>
<path d="M475.443 259.428C475.443 259.428 480.802 266.396 482.254 274.659C483.707 282.924 481.397 310.662 481.46 314.747C481.523 318.832 485.323 328.996 484.564 336.69C483.805 344.383 480.804 382.681 480.804 382.681L472.594 381.052C472.594 381.052 473.068 342.01 472.594 338.78C472.12 335.55 471.167 323.777 470.975 322.448C470.786 321.119 458.914 286.198 458.914 280.239C458.914 274.278 462.525 249.708 475.443 259.428Z" fill="#2D3133"/>
<path d="M448.528 262.152C448.528 262.152 439.725 295.747 438.681 300.402C437.637 305.056 436.122 308.894 436.122 310.871C436.122 315.455 437.826 322.821 437.826 322.821L449.005 376.284H459.651C459.651 376.284 453.72 344.209 453.559 337.938C453.4 331.652 448.561 322.725 449.509 320.067C450.46 317.407 464.802 286.725 464.802 286.725C464.802 286.725 475.665 252.398 448.528 262.152Z" fill="#2D3133"/>
<path d="M466.641 388.874C466.641 388.874 470.985 391.302 473.784 388.183C476.147 385.55 477.456 382.048 477.456 382.048L472.597 381.052L466.641 388.874Z" fill="#EEA886"/>
<path d="M452.164 205.058C452.164 205.058 448.535 205.401 445.792 208.339C443.048 211.276 440.476 215.961 439.758 217.53C439.039 219.096 428.97 233.62 428.448 233.945C427.926 234.271 423.526 233.116 420.001 232.821C414.249 232.342 405.64 229.409 405.64 229.409L404.362 235.91C404.362 235.91 425.528 242.741 430.415 241.538C436.389 240.065 450.139 222.424 450.139 222.424C450.139 222.424 460.392 210.414 452.164 205.058Z" fill="#DBDFF0"/>
<path d="M458.499 202.511C458.499 202.511 453.799 204.73 452.165 205.058C450.533 205.383 444.199 213.611 443.089 216.614C441.98 219.618 443.089 224.124 445.374 229.411C447.659 234.699 445.505 236.462 446.549 241.752C447.593 247.04 447.258 266.827 447.061 269.764C446.864 272.702 477.623 277.155 483.694 271.802C483.694 271.802 479.584 253.969 474.718 248.881C473.666 247.779 473.777 240.446 474.496 238.618C475.214 236.79 483.311 223.143 483.311 223.143C483.311 223.143 483.906 209.302 480.374 206.558C477.305 204.175 468.941 203.326 467.44 202.804C465.935 202.282 461.568 202.055 458.499 202.511Z" fill="#2F4563"/>
<path d="M456.256 197.087C456.256 197.087 457.194 205.711 456.997 208.52C456.997 208.52 461.881 213.415 467.439 202.806C467.439 202.806 465.101 198.434 466.861 192.475C468.619 186.514 456.256 197.087 456.256 197.087Z" fill="#EEA886"/>
<path d="M442.581 231.363C442.581 231.363 441.406 223.541 442.654 218.785C442.654 218.785 442.654 222.875 444.895 228.683L442.581 231.363Z" fill="#AAADBA"/>
<path d="M470.684 180.906C470.684 180.906 471.761 179.612 472.165 180.916C472.565 182.22 471.249 186.095 471.105 186.655C471.105 186.655 470.452 188.829 470.193 188.552C469.93 188.277 470.684 180.906 470.684 180.906Z" fill="#EEA987"/>
<path d="M451.858 181.068C451.858 181.068 450.781 179.774 450.378 181.078C449.977 182.381 451.293 186.257 451.437 186.817C451.437 186.817 452.09 188.99 452.349 188.713C452.614 188.436 451.858 181.068 451.858 181.068Z" fill="#EEA987"/>
<path d="M459.58 168.518C459.58 168.518 449.688 170.041 451.135 185.624C452.583 201.208 461.315 199.969 461.897 199.957C462.48 199.944 470.657 200.282 471.363 181.267C471.366 181.267 471.694 167.204 459.58 168.518Z" fill="#EEA987"/>
<path d="M469.468 180.334C469.468 180.334 458.489 183.599 453.232 182.555C453.232 182.555 452.896 184.494 452.142 184.613C451.388 184.731 451.003 180.906 451.003 180.906C451.003 180.906 450.745 168.233 462.208 168.114C473.672 167.996 471.344 181.839 471.344 181.839L471.188 184.204C471.185 184.209 469.544 184.858 469.468 180.334Z" fill="#163342"/>
<path d="M465.787 198.469C465.787 198.469 462.323 201.752 456.995 198.739C456.995 198.739 458.568 201.369 461.556 201.303C464.542 201.238 465.787 198.469 465.787 198.469Z" fill="#A77860"/>
<path d="M471.19 203.558C471.19 203.558 467.829 213.482 458.605 212.751C449.378 212.022 454.23 204.372 454.23 204.372C454.23 204.372 456.529 203.053 457.177 202.93C457.825 202.806 467.377 202.685 467.377 202.685L471.19 203.558Z" fill="#EEA886"/>
<path d="M454.232 204.372C454.232 204.372 449.4 217.739 449.4 231.363C449.4 244.987 449.012 267.18 447.322 274.187C445.635 281.195 440.834 302.868 440.834 302.868L437.072 300.921C437.072 300.921 446.122 266.332 446.805 263.839C447.489 261.345 446.286 234.994 445.638 232.788C444.99 230.581 442.229 220.76 442.657 218.037C443.2 214.602 446.412 209.519 451.604 205.149L454.232 204.372Z" fill="#DBDFF0"/>
<path d="M469.366 203.142C469.366 203.142 466.363 212.759 464.84 225.074C463.317 237.392 469.513 294.562 473.666 307.54L489.758 304.946C489.758 304.946 486.294 264.535 481.591 257.179C476.888 249.824 475.393 243.318 480.469 227.969C485.545 212.62 478.242 205.018 478.242 205.018C478.242 205.018 470.778 203.301 469.366 203.142Z" fill="#DBDFF0"/>
<path d="M452.007 243.923L471.519 277.72L493.209 265.195L474.545 230.909L452.007 243.923Z" fill="#616161"/>
<path d="M454.359 245.086L471.687 275.1L490.952 263.977L474.375 233.529L454.359 245.086Z" fill="#F0F0FF"/>
<path d="M460.75 242.39L459.535 240.282L467.322 235.786L468.842 237.718L460.75 242.39Z" fill="#616161"/>
<path d="M461.682 266.368C461.682 266.368 462.569 266.373 462.958 266.184C462.958 266.184 463.639 265.788 464.14 265.535C464.299 265.457 464.44 265.389 464.536 265.356C464.935 265.218 465.85 265.036 466.712 264.436C467.575 263.838 470.631 260.301 470.631 260.301L469.189 258.107L468.129 255.86C468.129 255.86 461.715 256.274 460.847 256.74C460.761 256.786 460.681 256.833 460.608 256.886C459.912 257.35 459.589 257.988 459.248 258.276C459.125 258.382 457.968 259.514 458.008 259.996C458.063 260.664 458.373 261.105 458.777 261.327C458.777 261.327 458.943 262.633 459.586 263.241C459.586 263.241 459.7 264.449 460.716 264.978C460.714 264.978 460.968 266.194 461.682 266.368Z" fill="#EEA886"/>
<path d="M474.901 205.058C474.901 205.058 480.827 203.361 484.221 209.889C487.615 216.418 487.599 219.204 488.053 222.394C488.482 225.405 490.416 233.625 490.613 234.472C490.809 235.322 495.189 245.444 493.18 248.982C491.16 252.537 470.652 263.004 470.783 263.788C470.914 264.572 467.23 255.876 467.23 255.876C467.23 255.876 475.529 251.251 476.888 249.826C479.094 247.514 483.752 245.02 482.796 242.151C481.671 238.779 478.295 227.407 477.513 225.74C476.729 224.073 469.908 207.181 474.901 205.058Z" fill="#DBDFF0"/>
<defs>
<linearGradient id="paint0_linear" x1="321.063" y1="62.0226" x2="419.719" y2="62.0226" gradientUnits="userSpaceOnUse">
<stop stop-color="#A95F2F"/>
<stop offset="1" stop-color="#FA8F13"/>
</linearGradient>
<linearGradient id="paint1_linear" x1="410.341" y1="18.4724" x2="447.284" y2="18.4724" gradientUnits="userSpaceOnUse">
<stop stop-color="#A95F2F"/>
<stop offset="1" stop-color="#FA8F13"/>
</linearGradient>
<linearGradient id="paint2_linear" x1="319.476" y1="97.7689" x2="342.724" y2="174.348" gradientUnits="userSpaceOnUse">
<stop stop-color="#40D5E6"/>
<stop offset="1" stop-color="#5577FF"/>
</linearGradient>
<linearGradient id="paint3_linear" x1="291.541" y1="234.292" x2="352.627" y2="8.84643" gradientUnits="userSpaceOnUse">
<stop stop-color="#121483"/>
<stop offset="1" stop-color="#5C5EFA"/>
</linearGradient>
<linearGradient id="paint4_linear" x1="264.784" y1="210.95" x2="280.301" y2="71.2576" gradientUnits="userSpaceOnUse">
<stop stop-color="#121483"/>
<stop offset="1" stop-color="#5C5EFA"/>
</linearGradient>
<linearGradient id="paint5_linear" x1="97.5182" y1="323.683" x2="97.5182" y2="231.168" gradientUnits="userSpaceOnUse">
<stop stop-color="#602F80"/>
<stop offset="1" stop-color="#5770FF"/>
</linearGradient>
<linearGradient id="paint6_linear" x1="97.5279" y1="226.714" x2="561.007" y2="226.714" gradientUnits="userSpaceOnUse">
<stop stop-color="#A95F2F"/>
<stop offset="1" stop-color="#FA8F13"/>
</linearGradient>
<linearGradient id="paint7_linear" x1="28.2111" y1="237.448" x2="33.9602" y2="237.448" gradientUnits="userSpaceOnUse">
<stop stop-color="#A95F2F"/>
<stop offset="1" stop-color="#FA8F13"/>
</linearGradient>
<linearGradient id="paint8_linear" x1="42.4882" y1="234.285" x2="48.2373" y2="234.285" gradientUnits="userSpaceOnUse">
<stop stop-color="#A95F2F"/>
<stop offset="1" stop-color="#FA8F13"/>
</linearGradient>
<linearGradient id="paint9_linear" x1="56.7653" y1="232.633" x2="62.5144" y2="232.633" gradientUnits="userSpaceOnUse">
<stop stop-color="#A95F2F"/>
<stop offset="1" stop-color="#FA8F13"/>
</linearGradient>
<linearGradient id="paint10_linear" x1="71.0443" y1="231.946" x2="76.7935" y2="231.946" gradientUnits="userSpaceOnUse">
<stop stop-color="#A95F2F"/>
<stop offset="1" stop-color="#FA8F13"/>
</linearGradient>
<linearGradient id="paint11_linear" x1="267.5" y1="458.646" x2="274.842" y2="41.6454" gradientUnits="userSpaceOnUse">
<stop offset="0.15625" stop-color="#442F6B"/>
<stop offset="0.541667" stop-color="#121483"/>
<stop offset="0.901042" stop-color="#FA8F13"/>
</linearGradient>
<linearGradient id="paint12_linear" x1="291.721" y1="107.525" x2="346.886" y2="107.525" gradientUnits="userSpaceOnUse">
<stop stop-color="#121483"/>
<stop offset="1" stop-color="#5C5EFA"/>
</linearGradient>
<linearGradient id="paint13_linear" x1="291.784" y1="136.501" x2="342.424" y2="136.501" gradientUnits="userSpaceOnUse">
<stop stop-color="#121483"/>
<stop offset="1" stop-color="#5C5EFA"/>
</linearGradient>
<linearGradient id="paint14_linear" x1="291.88" y1="122.011" x2="335.695" y2="122.011" gradientUnits="userSpaceOnUse">
<stop stop-color="#121483"/>
<stop offset="1" stop-color="#5C5EFA"/>
</linearGradient>
<linearGradient id="paint15_linear" x1="233.857" y1="163.714" x2="233.857" y2="103.701" gradientUnits="userSpaceOnUse">
<stop stop-color="#484AD9"/>
<stop offset="1" stop-color="white"/>
</linearGradient>
<radialGradient id="paint16_radial" cx="0" cy="0" r="1" gradientUnits="userSpaceOnUse" gradientTransform="translate(329.258 239.668) scale(166.19)">
<stop offset="0.1602" stop-color="#6063FF"/>
<stop offset="0.5806" stop-color="#4E51E4"/>
<stop offset="1" stop-color="#2F31A1"/>
</radialGradient>
<linearGradient id="paint17_linear" x1="365.497" y1="346.193" x2="386.06" y2="301.044" gradientUnits="userSpaceOnUse">
<stop stop-color="#121483"/>
<stop offset="1" stop-color="#5C5EFA"/>
</linearGradient>
<linearGradient id="paint18_linear" x1="349.042" y1="345.305" x2="360.65" y2="309.884" gradientUnits="userSpaceOnUse">
<stop stop-color="#121483"/>
<stop offset="1" stop-color="#5C5EFA"/>
</linearGradient>
<linearGradient id="paint19_linear" x1="381.461" y1="347.661" x2="418.279" y2="292.422" gradientUnits="userSpaceOnUse">
<stop stop-color="#121483"/>
<stop offset="1" stop-color="#5C5EFA"/>
</linearGradient>
<linearGradient id="paint20_linear" x1="50.3192" y1="282.848" x2="66.8708" y2="282.848" gradientUnits="userSpaceOnUse">
<stop stop-color="#A95F2F"/>
<stop offset="1" stop-color="#FA8F13"/>
</linearGradient>
<linearGradient id="paint21_linear" x1="44.3888" y1="282.848" x2="51.2878" y2="282.848" gradientUnits="userSpaceOnUse">
<stop stop-color="#A95F2F"/>
<stop offset="1" stop-color="#FA8F13"/>
</linearGradient>
<linearGradient id="paint22_linear" x1="291.34" y1="-9.59376" x2="271.518" y2="64.5547" gradientUnits="userSpaceOnUse">
<stop stop-color="#FF9F55"/>
<stop offset="1" stop-color="#FFD255"/>
</linearGradient>
<linearGradient id="paint23_linear" x1="290.351" y1="-9.85915" x2="270.529" y2="64.2915" gradientUnits="userSpaceOnUse">
<stop stop-color="#FF9F55"/>
<stop offset="1" stop-color="#FFD255"/>
</linearGradient>
<linearGradient id="paint24_linear" x1="221.594" y1="132.77" x2="252.449" y2="79.9425" gradientUnits="userSpaceOnUse">
<stop stop-color="#121483"/>
<stop offset="1" stop-color="#5C5EFA"/>
</linearGradient>
<linearGradient id="paint25_linear" x1="182.29" y1="111.656" x2="182.846" y2="94.8251" gradientUnits="userSpaceOnUse">
<stop stop-color="#121483"/>
<stop offset="1" stop-color="#5C5EFA"/>
</linearGradient>
</defs>
</svg>
