<svg width="22" height="22" viewBox="0 0 22 22" fill="none" xmlns="http://www.w3.org/2000/svg">
<path fill-rule="evenodd" clip-rule="evenodd" d="M19.8365 14.9846L16.732 14.6301C15.9865 14.5446 15.2531 14.8012 14.7276 15.3268L12.4787 17.5757C9.01981 15.8157 6.18425 12.9923 4.42425 9.52122L6.68536 7.26011C7.21092 6.73455 7.46758 6.00122 7.38203 5.25566L7.02758 2.17566C6.88092 0.941218 5.84203 0.0123291 4.59536 0.0123291H2.48092C1.09981 0.0123291 -0.0490833 1.16122 0.0364722 2.54233C0.68425 12.9801 9.03203 21.3157 19.4576 21.9634C20.8387 22.049 21.9876 20.9001 21.9876 19.519V17.4046C21.9998 16.1701 21.0709 15.1312 19.8365 14.9846Z" fill="#121483"/>
</svg>
