<svg width="206" height="51" viewBox="0 0 206 51" fill="none" xmlns="http://www.w3.org/2000/svg">
<path d="M37.5891 31.1664C35.2599 33.8931 32.0573 35.7279 28.5269 36.358C26.2993 36.7557 24.0281 36.6581 21.8693 36.0917C21.4128 35.972 20.925 36.1589 20.6909 36.5687L18.103 41.1002C17.4524 42.2395 16.5789 43.275 15.2688 43.3434C14.7632 43.3698 14.1535 43.2804 13.6873 43.0828C13.3865 42.9552 13.1332 42.8144 12.8909 42.635C12.3326 42.2217 11.9356 41.5574 11.792 40.8778C11.511 39.5479 12.1729 38.2801 12.8593 37.1068C16.4202 31.0202 27.9307 11.3258 27.9307 11.0689C27.9307 10.7649 23.5237 11.3728 23.5237 11.3728C20.3583 11.9824 19.0479 12.2591 17.749 14.5641L11.3664 25.8096L11.0625 25.3537C10.0893 21.9021 10.1648 18.1712 11.6022 14.8857C13.0396 11.6002 15.5718 8.9148 18.7672 7.28697C21.9626 5.65915 25.6235 5.18965 29.1263 5.95847C32.6291 6.72728 35.7569 8.68685 37.9768 11.5033C40.1968 14.3197 41.3715 17.8187 41.3008 21.4042C41.2301 24.9896 39.9184 28.4397 37.5891 31.1664Z" fill="url(#paint0_linear)"/>
<path d="M4.64572 9.24126V12.9486C4.64572 13.3459 4.9751 13.6769 5.37037 13.6769H8.40071C8.79598 13.6769 9.12536 13.3459 9.12536 12.9486V9.24126H12.8145C13.2097 9.24126 13.5391 8.91024 13.5391 8.51303V5.46768C13.5391 5.07046 13.2097 4.73945 12.8145 4.67324H9.12536V1.03207C9.12536 0.965865 9.12536 0.965865 9.12536 0.899662C9.12536 0.833459 9.12536 0.833459 9.05948 0.767256C8.92773 0.502443 8.66422 0.303833 8.40071 0.303833H5.37037C4.9751 0.303833 4.64572 0.634849 4.64572 1.03207V4.67324H0.956602C0.56134 4.67324 0.231954 5.00426 0.166077 5.40148C0.166077 5.40148 0.166077 5.40148 0.166077 5.46768V8.51303C0.166077 8.57923 0.166077 8.64543 0.166077 8.71164C0.231954 9.04265 0.561339 9.24126 0.890725 9.24126H4.64572Z" fill="url(#paint1_linear)"/>
<path d="M45.5849 33.0968V16.9598C45.5849 15.4618 46.402 14.6448 47.8999 14.6448H48.6489C50.1469 14.6448 50.9639 15.4618 50.9639 16.9598V33.0968C50.9639 34.5948 50.1469 35.4119 48.6489 35.4119H47.8999C46.402 35.4119 45.5849 34.5948 45.5849 33.0968Z" fill="#121483"/>
<path d="M60.2924 35.6166C56.4113 35.6166 53.824 32.6887 53.824 27.5821C53.824 22.4754 56.4113 19.5476 60.2924 19.5476C62.1989 19.5476 64.1735 20.5009 64.8543 22.135V21.8626C64.8543 20.4328 65.7395 19.7519 67.1694 19.7519H67.8502C69.3482 19.7519 70.1653 20.5689 70.1653 22.0669V33.0973C70.1653 34.5952 69.3482 35.4123 67.8502 35.4123H67.1694C65.7395 35.4123 64.8543 34.7314 64.8543 33.3696V33.0973C64.1735 34.6633 62.1308 35.6166 60.2924 35.6166ZM65.0586 27.5821C65.0586 25.2671 63.9011 23.8372 62.0627 23.8372C60.2924 23.8372 59.0668 25.3352 59.0668 27.5821C59.0668 29.8971 60.2924 31.3951 62.0627 31.3951C63.833 31.3951 65.0586 29.8971 65.0586 27.5821Z" fill="#121483"/>
<path d="M82.1466 35.6842C77.6527 35.6842 75.6101 33.9139 75.6101 29.2157V23.7686H75.2015C74.1121 23.7686 73.4993 23.0196 73.4993 21.794C73.4993 20.5004 74.1121 19.8195 75.2015 19.8195H75.6782V19.0024C75.6782 17.6406 76.291 16.9597 77.9251 16.6193L78.5379 16.4831C80.3763 16.0746 81.0572 16.7555 81.0572 18.3896V19.8195H82.6913C84.3935 19.8195 85.0063 20.5004 85.0063 21.794C85.0063 23.0877 84.3935 23.7686 82.6913 23.7686H80.921V28.8072C80.921 30.7137 81.6019 31.4627 83.0318 31.5988C84.1893 31.735 84.8702 32.2797 84.9382 33.4372C84.9382 34.6628 84.3935 35.548 82.8956 35.6842C82.6913 35.6161 82.419 35.6842 82.1466 35.6842Z" fill="#121483"/>
<path d="M95.0153 35.6167C90.0449 35.6167 86.7766 32.4846 86.7766 27.5822C86.7766 22.7479 90.113 19.5477 94.9473 19.5477C99.5092 19.5477 102.437 22.067 102.777 26.3566C102.914 27.9226 102.165 28.6716 100.462 28.6716H92.0875C92.1556 30.7143 93.3812 31.9399 95.3558 31.9399C96.4452 31.9399 97.2623 31.5994 98.0113 31.0547C98.7602 30.4419 99.2369 30.1696 100.394 30.4419L100.803 30.51C102.369 30.8505 102.573 31.7356 101.552 33.0293C100.258 34.5953 97.9432 35.6167 95.0153 35.6167ZM95.0153 22.9522C93.4493 22.9522 92.2237 23.9735 92.0875 25.6757H97.8751C97.807 23.9735 96.6495 22.9522 95.0153 22.9522Z" fill="#121483"/>
<path d="M111.562 35.6167C107.681 35.6167 105.094 32.6889 105.094 27.5822C105.094 22.4755 107.681 19.5477 111.562 19.5477C113.468 19.5477 115.443 20.501 116.124 22.1351V21.8627C116.124 20.4329 117.009 19.752 118.439 19.752H119.12C120.618 19.752 121.435 20.5691 121.435 22.067V33.0974C121.435 34.5953 120.618 35.4124 119.12 35.4124H118.439C117.009 35.4124 116.124 34.7315 116.124 33.3697V33.0974C115.443 34.6634 113.468 35.6167 111.562 35.6167ZM116.328 27.5822C116.328 25.2672 115.171 23.8373 113.332 23.8373C111.562 23.8373 110.336 25.3353 110.336 27.5822C110.336 29.8972 111.562 31.3952 113.332 31.3952C115.103 31.3952 116.328 29.8972 116.328 27.5822Z" fill="#121483"/>
<path d="M138.047 19.7516C139.545 19.7516 140.362 20.5687 140.362 22.0666V33.097C140.362 34.5949 139.545 35.412 138.047 35.412H137.366C135.868 35.412 135.051 34.5949 135.051 33.2332C134.37 34.5949 132.599 35.6163 130.489 35.6163C126.403 35.6163 124.701 33.4374 124.701 28.535V22.1347C124.701 20.6367 125.518 19.8197 127.016 19.8197H127.697C129.195 19.8197 130.012 20.6367 130.012 22.1347V27.9903C130.012 30.3053 130.829 31.3267 132.531 31.3267C134.37 31.3267 135.051 30.2373 135.051 27.9222V22.1347C135.051 20.6367 135.868 19.8197 137.366 19.8197L138.047 19.7516Z" fill="#121483"/>
<path d="M143.222 32.961L145.401 17.7773C145.606 16.3474 146.423 15.6665 147.852 15.6665H150.44C151.802 15.6665 152.619 16.3474 152.959 17.6411L156.159 29.6247L159.359 17.6411C159.7 16.2793 160.517 15.6665 161.879 15.6665H164.466C165.896 15.6665 166.713 16.4155 166.917 17.7773L169.096 32.961C169.3 34.5271 168.551 35.4122 166.985 35.4122H166.032C164.602 35.4122 163.785 34.6633 163.581 33.2334L162.219 22.8158L159.223 33.4377C158.883 34.7314 158.066 35.4122 156.636 35.4122H155.546C154.185 35.4122 153.368 34.7314 152.959 33.4377L150.031 22.8839L148.67 33.3015C148.465 34.7314 147.648 35.4803 146.218 35.4803H145.265C143.767 35.4122 143.018 34.5271 143.222 32.961Z" fill="#121483"/>
<path d="M171.343 27.5818C171.343 22.7475 174.679 19.5474 179.513 19.5474C184.075 19.5474 187.003 22.0666 187.343 26.3562C187.48 27.9223 186.731 28.6713 185.028 28.6713H176.653C176.722 30.7139 177.947 31.9395 179.922 31.9395C181.011 31.9395 181.828 31.5991 182.577 31.0544C183.326 30.4416 183.803 30.1692 184.96 30.4416L185.369 30.5097C186.935 30.8501 187.139 31.7353 186.118 33.0289C184.824 34.595 182.577 35.6163 179.581 35.6163C174.611 35.6163 171.343 32.4842 171.343 27.5818ZM179.649 22.9518C178.083 22.9518 176.858 23.9731 176.722 25.6754H182.509C182.373 23.9731 181.284 22.9518 179.649 22.9518Z" fill="#121483"/>
<path d="M189.659 27.5819C189.659 22.4752 192.246 19.5474 196.127 19.5474C198.033 19.5474 200.008 20.5007 200.689 22.1348V16.96C200.689 15.4621 201.506 14.645 203.004 14.645H203.685C205.183 14.645 206 15.4621 206 16.96V33.029C206 34.5269 205.183 35.344 203.685 35.344H203.004C201.574 35.344 200.689 34.6631 200.689 33.5737V33.029C200.008 34.595 197.965 35.5483 196.127 35.5483C192.246 35.6164 189.659 32.6885 189.659 27.5819ZM200.893 27.5819C200.893 25.2669 199.736 23.837 197.897 23.837C196.127 23.837 194.901 25.335 194.901 27.5819C194.901 29.8969 196.127 31.3949 197.897 31.3949C199.736 31.3949 200.893 29.8969 200.893 27.5819Z" fill="#121483"/>
<defs>
<linearGradient id="paint0_linear" x1="27.1622" y1="32.9323" x2="18.907" y2="17.0432" gradientUnits="userSpaceOnUse">
<stop stop-color="#121483"/>
<stop offset="1" stop-color="#FA8701" stop-opacity="0.93"/>
</linearGradient>
<linearGradient id="paint1_linear" x1="-5.86247" y1="-5.86551" x2="7.23236" y2="7.16482" gradientUnits="userSpaceOnUse">
<stop stop-color="#121483"/>
<stop offset="1" stop-color="#FA8701"/>
</linearGradient>
</defs>
</svg>
